<svg xmlns="http://www.w3.org/2000/svg" width="254.76" height="138.753" viewBox="0 0 254.76 138.753"><g transform="translate(-385.976 -704.694)"><rect width="16.344" height="23.317" transform="translate(505.082 709.924)" fill="#6c6d6a"/><rect width="22.881" height="8.063" transform="translate(502.031 704.694)" fill="#525252"/><rect width="254.76" height="13.697" transform="translate(385.976 829.75)" fill="#b8b8b8"/><path d="M394.65,829.75V762.18l118.705-37.894L632.06,763.094V829.75Z" fill="#6c6c6c"/><path d="M394.65,772.225l118.705-36.981L632.06,772.225v-9.131L513.355,724.286,394.65,762.18Z" fill="#525257"/><path d="M388.715,759.9v8.675L513.3,728.415l-.076-8.65Z" fill="#aac698"/><path d="M513.355,719.721l-.136.044.076,8.65.06-.019,124.184,40.177v-9.131Z" fill="#829474"/><rect width="35.081" height="9.517" transform="translate(453.699 755.732)" fill="#454545"/><rect width="14.333" height="5.746" transform="translate(455.615 757.719)" fill="#fff"/><rect width="14.333" height="5.746" transform="translate(472.423 757.719)" fill="#fff"/><rect width="35.081" height="9.517" transform="translate(495.815 755.834)" fill="#454545"/><rect width="14.332" height="5.746" transform="translate(497.731 757.82)" fill="#fff"/><rect width="14.333" height="5.746" transform="translate(514.539 757.82)" fill="#fff"/><rect width="35.081" height="9.517" transform="translate(537.943 755.935)" fill="#454545"/><rect width="14.332" height="5.746" transform="translate(539.859 757.922)" fill="#fff"/><rect width="14.333" height="5.746" transform="translate(556.667 757.922)" fill="#fff"/><rect width="82.804" height="47.498" transform="translate(411.75 782.252)" fill="#7f9370"/><rect width="37.705" height="47.498" transform="translate(434.718 782.252)" fill="#454545"/><rect width="82.805" height="47.498" transform="translate(531.422 782.252)" fill="#7f9370"/><rect width="37.706" height="47.498" transform="translate(554.39 782.252)" fill="#454545"/><rect width="217.891" height="9.973" transform="translate(404.498 775.604)" fill="#abc497"/><rect width="16.727" height="8.885" transform="translate(441.379 820.865)" fill="#917d67"/><rect width="16.727" height="8.097" transform="translate(441.379 812.769)" fill="#c4a588"/><rect width="16.46" height="8.885" transform="translate(507.045 820.865)" fill="#c2a68b"/><rect width="16.639" height="8.885" transform="translate(523.505 820.865)" fill="#927b67"/><rect width="16.146" height="8.275" transform="translate(515.275 812.59)" fill="#dbcaba"/><rect width="16.728" height="8.974" transform="translate(558.919 820.776)" fill="#8f7861"/><rect width="16.449" height="8.974" transform="translate(575.646 820.776)" fill="#c3a68a"/><rect width="16.448" height="7.83" transform="translate(575.646 812.946)" fill="#927c69"/><rect width="16.449" height="8.72" transform="translate(575.646 804.227)" fill="#dbcaba"/><rect width="6.939" height="21.164" transform="translate(588.191 808.586)" fill="#ddd"/><rect width="6.94" height="21.164" transform="translate(595.131 808.586)" fill="#a7a7a7"/><rect width="6.939" height="21.164" transform="translate(605.632 822.283)" fill="#ddd"/><rect width="6.94" height="21.164" transform="translate(612.571 822.283)" fill="#a7a7a7"/></g></svg>